PathFileType	4	(X/Y/Z)	C:\Users\ebm\Documents\Erivelton\Erivelton2\wc1.trc
DataRate	CameraRate	NumFrames	NumMarkers	Units	OrigDataRate	OrigDataStartFrame	OrigNumFrames
150.00	150.00	       11	28	mm	150.00	282	       750
Frame#	Time	IJ			PX			C7			T8			RAC			RAS			RPS			RAI			RPI			RLE			RME			RRS			RUS			R3M			R5M			LAC			LAS			LPS			LAI			LPI			LLE			LME			LRS			LUS			L3M			L5M			RW			LW			V_mid_elbow_r			V_mid_elbow_l			V_mid_wrist_r			V_mid_wrist_l			V_mid_trunk_low			V_mid_trunk_upp			
		X1	Y1	Z1	X2	Y2	Z2	X3	Y3	Z3	X4	Y4	Z4	X5	Y5	Z5	X6	Y6	Z6	X7	Y7	Z7	X8	Y8	Z8	X9	Y9	Z9	X10	Y10	Z10	X11	Y11	Z11	X12	Y12	Z12	X13	Y13	Z13	X14	Y14	Z14	X15	Y15	Z15	X16	Y16	Z16	X17	Y17	Z17	X18	Y18	Z18	X19	Y19	Z19	X20	Y20	Z20	X21	Y21	Z21	X22	Y22	Z22	X23	Y23	Z23	X24	Y24	Z24	X25	Y25	Z25	X26	Y26	Z26	X27	Y27	Z27	X28	Y28	Z28	

282	1.873	2459.21289	1029.11572	-200.78801	2481.77295	864.34247	-185.74008	2323.64990	1119.24036	-207.01016	2257.95337	965.07892	-195.90646	2378.90771	1064.72729	4.32903	2410.58325	872.07483	65.96264	2360.89160	872.28284	66.18855	2419.65674	797.60223	87.75493	2366.28809	794.28955	88.68327	2380.19995	733.57361	98.92356	2370.01831	711.06067	25.69198	2553.51514	528.90784	147.95441	2496.59521	514.54822	160.27473	2559.95654	440.59854	171.00868	2523.04517	430.87357	160.37863	2365.23218	1056.90100	-388.63345	2368.31445	884.55377	-458.85400	2324.03125	873.81622	-442.35425	2387.02368	807.51398	-476.92749	2337.45630	792.73468	-458.61713	2379.84717	722.85919	-489.40512	2356.76758	700.81653	-419.92267	2547.50732	517.96002	-509.70367	2495.12598	487.85486	-532.84369	2560.59692	425.67984	-531.77350	2520.73071	421.96320	-530.82690	2440.09912	299.38586	131.40726	2427.95166	297.66925	-497.28525	
283	1.880	2459.21729	1029.11670	-200.78558	2482.11157	864.81757	-185.53473	2323.66113	1119.23425	-206.99995	2257.94604	965.07556	-195.90218	2378.91064	1064.72400	4.32763	2410.57495	872.06641	65.96872	2360.88330	872.28644	66.18310	2419.64014	797.59735	87.75722	2366.27124	794.29248	88.67724	2380.18164	733.57678	98.92225	2370.00317	711.06195	25.68137	2553.48169	528.89526	147.96924	2496.56519	514.54791	160.28206	2559.93701	440.58670	171.02245	2523.00098	430.86624	160.39375	2365.21265	1056.89990	-388.62949	2368.32275	884.55292	-458.85687	2324.02637	873.81165	-442.34903	2387.01636	807.50934	-476.92276	2337.45215	792.72864	-458.60797	2379.85229	722.86243	-489.39383	2356.77466	700.80878	-419.90854	2547.49951	517.88715	-509.68451	2495.11206	487.85071	-532.84338	2560.58740	425.66614	-531.77325	2520.71387	421.94748	-530.82526	2440.09521	299.36841	131.41751	2427.94312	297.66739	-497.28421	
284	1.887	2459.20898	1029.11853	-200.78036	2482.11963	864.82367	-185.54053	2323.66235	1119.23853	-207.00587	2257.94141	965.08356	-195.89984	2378.90527	1064.72412	4.32320	2410.58032	872.07800	65.96491	2360.88086	872.28162	66.18599	2419.64233	797.59613	87.75557	2366.26636	794.28595	88.67674	2380.17090	733.57550	98.92628	2369.98999	711.05762	25.69209	2553.47021	528.88904	147.97943	2496.54126	514.53937	160.29337	2559.91113	440.57126	171.03264	2522.97681	430.86890	160.39975	2365.21362	1056.90857	-388.62976	2368.31616	884.59082	-458.79468	2324.02930	873.81097	-442.33853	2387.01489	807.51221	-476.91348	2337.45166	792.72961	-458.60236	2379.84717	722.87262	-489.40463	2356.76416	700.81409	-419.89572	2547.49048	517.87854	-509.69122	2495.07837	487.83780	-532.85144	2560.57178	425.66165	-531.76959	2520.69995	421.94827	-530.84436	2440.08057	299.37476	131.42659	2427.95093	297.66629	-497.27274	
285	1.893	2459.21680	1029.11426	-200.78235	2481.78784	864.34552	-185.73111	2323.65771	1119.23621	-207.00822	2257.94385	965.07709	-195.89700	2378.91016	1064.72180	4.33214	2410.56543	872.07184	65.96100	2360.87524	872.27869	66.17918	2419.63428	797.59564	87.74821	2366.25537	794.28430	88.67343	2380.15991	733.57129	98.92221	2369.97852	711.05267	25.68465	2553.43799	528.87653	147.98151	2496.51416	514.53009	160.29475	2559.86548	440.57007	171.04384	2522.95288	430.85666	160.39348	2365.21362	1056.90381	-388.62915	2368.30688	884.58716	-458.79315	2324.02246	873.80634	-442.33371	2387.00000	807.50659	-476.91815	2337.44165	792.73090	-458.59488	2379.83569	722.85675	-489.37973	2356.75854	700.80939	-419.89566	2547.46729	517.87006	-509.69342	2495.09131	487.84140	-532.83850	2560.54126	425.65540	-531.78119	2520.68994	421.93930	-530.83777	2440.08521	299.37747	131.41721	2427.93994	297.66986	-497.27390	
286	1.900	2459.20605	1029.09985	-200.78757	2481.78662	864.33368	-185.73759	2323.66309	1119.23120	-207.00378	2257.94775	965.08881	-195.89534	2378.88965	1064.71448	4.33860	2410.56982	872.06995	65.96226	2360.86792	872.27765	66.18362	2419.62769	797.58704	87.75348	2366.24707	794.28436	88.66759	2380.14673	733.57117	98.91369	2369.97412	711.06140	25.69322	2553.40796	528.87079	147.98856	2496.49951	514.53058	160.29207	2559.84570	440.55161	171.04454	2522.91309	430.84055	160.40782	2365.21118	1056.89063	-388.62213	2368.30688	884.58929	-458.79248	2324.02881	873.81049	-442.32901	2387.00830	807.50519	-476.90894	2337.44751	792.72809	-458.59872	2379.83740	722.85944	-489.39001	2356.76099	700.81476	-419.90274	2547.47266	517.85907	-509.68994	2495.07910	487.83411	-532.85162	2560.54688	425.64911	-531.78497	2520.67871	421.94119	-530.83606	2440.06860	299.37717	131.42021	2427.93994	297.66980	-497.28735	
287	1.907	2459.21802	1029.11096	-200.78033	2481.78418	864.32941	-185.73015	2323.66089	1119.23120	-206.99445	2257.94458	965.09155	-195.90115	2378.90771	1064.72070	4.33167	2410.56250	872.06049	65.95991	2360.86157	872.28540	66.17769	2419.61914	797.57977	87.74364	2366.24487	794.27887	88.66411	2380.13647	733.56396	98.91833	2369.98438	711.04755	25.66485	2553.40308	528.86359	148.00223	2496.47095	514.52887	160.29903	2559.82471	440.54053	171.03642	2522.89917	430.84314	160.41350	2365.21143	1056.88696	-388.62683	2368.29785	884.58264	-458.79019	2324.01929	873.79816	-442.32159	2386.99707	807.49066	-476.90610	2337.43457	792.72430	-458.58969	2379.83496	722.85400	-489.39087	2356.76416	700.79303	-419.88544	2547.43628	517.85785	-509.69519	2495.05347	487.81894	-532.85406	2560.51929	425.63773	-531.78790	2520.66846	421.93799	-530.83972	2440.06787	299.36749	131.41309	2427.93701	297.66873	-497.28009	
288	1.913	2459.22388	1029.11475	-200.78032	2481.77539	864.32202	-185.73262	2323.66431	1119.23828	-207.00069	2257.94263	965.09845	-195.89287	2378.89844	1064.71143	4.33486	2410.55493	872.06805	65.95821	2360.85913	872.27460	66.17245	2419.60645	797.57983	87.74654	2366.23291	794.27838	88.66244	2380.12402	733.56946	98.91583	2369.96973	711.05212	25.66760	2553.37354	528.84589	147.99919	2496.45972	514.52356	160.29741	2559.79248	440.53696	171.03983	2522.86719	430.83722	160.41466	2365.20581	1056.88782	-388.62155	2368.30737	884.53552	-458.83908	2324.01294	873.80310	-442.32648	2387.00879	807.49097	-476.90906	2337.43726	792.72412	-458.59778	2379.83569	722.85272	-489.39600	2356.78711	700.79645	-419.88300	2547.43677	517.84912	-509.70255	2495.04492	487.83295	-532.84888	2560.51636	425.63779	-531.78973	2520.64282	421.93134	-530.83734	2440.05737	299.37558	131.41876	2427.92334	297.66422	-497.28088	
289	1.920	2459.21533	1029.10193	-200.78392	2481.77173	864.31287	-185.73256	2323.66260	1119.23572	-206.99901	2257.93481	965.09155	-195.90224	2378.89990	1064.71777	4.33336	2410.54810	872.05969	65.95802	2360.85474	872.28271	66.17213	2419.60791	797.57648	87.74631	2366.22192	794.27612	88.65962	2380.13135	733.56830	98.91484	2369.97729	711.05457	25.67764	2553.36304	528.84210	148.01059	2496.44092	514.51550	160.30960	2559.77734	440.52359	171.04527	2522.85718	430.83038	160.41260	2365.21289	1056.88037	-388.61438	2368.29810	884.58209	-458.79721	2324.01221	873.79834	-442.32361	2386.99585	807.49408	-476.90652	2337.42578	792.71509	-458.59033	2379.82495	722.83777	-489.39285	2356.78491	700.79150	-419.88565	2547.43311	517.84747	-509.70221	2495.05298	487.81659	-532.83453	2560.51880	425.63904	-531.79291	2520.65576	421.92499	-530.83539	2440.05249	299.37396	131.42268	2427.92407	297.65897	-497.27139	
290	1.927	2459.21265	1029.10156	-200.77725	2482.10278	864.78906	-185.53851	2323.65698	1119.23022	-206.99770	2257.93262	965.08954	-195.89465	2378.89258	1064.70825	4.33442	2410.53735	872.05060	65.95644	2360.84912	872.27618	66.16792	2419.59473	797.57318	87.75076	2366.21460	794.26343	88.66075	2380.12061	733.56067	98.91135	2369.94263	711.03271	25.69277	2553.34766	528.82239	148.00485	2496.41919	514.50354	160.30727	2559.75586	440.50674	171.04037	2522.83960	430.82135	160.41566	2365.21167	1056.86877	-388.61417	2368.29590	884.57300	-458.78915	2324.00830	873.79083	-442.31961	2386.98755	807.48767	-476.90363	2337.42480	792.71863	-458.58762	2379.82690	722.85596	-489.39691	2356.76660	700.78418	-419.88858	2547.43677	517.84430	-509.69608	2495.04272	487.82074	-532.84515	2560.50928	425.63397	-531.80292	2520.63867	421.92886	-530.84155	2440.04150	299.37326	131.42358	2427.91919	297.66455	-497.28406	
291	1.933	2459.21582	1029.10339	-200.78709	2481.78223	864.31128	-185.73619	2323.65918	1119.23401	-206.99075	2257.94116	965.08826	-195.90370	2378.90088	1064.71045	4.33686	2410.55298	872.05518	65.95486	2360.83936	872.26910	66.17258	2419.59082	797.57098	87.75117	2366.21655	794.26105	88.67177	2380.11157	733.55670	98.91897	2369.94482	711.02850	25.68027	2553.35205	528.82123	148.00108	2496.40479	514.49976	160.31284	2559.74463	440.50336	171.04800	2522.82227	430.80627	160.41367	2365.20776	1056.87854	-388.61224	2368.28833	884.57391	-458.78854	2324.00391	873.79254	-442.31927	2386.98242	807.48969	-476.90903	2337.41846	792.71246	-458.59033	2379.81763	722.83875	-489.39069	2356.75537	700.79736	-419.88995	2547.43701	517.84564	-509.69266	2495.03979	487.81967	-532.85602	2560.51538	425.64078	-531.78864	2520.65112	421.92642	-530.84351	2440.05103	299.37155	131.42271	2427.91919	297.66867	-497.26929	
292	1.940	2459.20825	1029.09326	-200.77467	2482.11133	864.79504	-185.53127	2323.66724	1119.24341	-206.99983	2257.92920	965.09314	-195.89339	2378.88965	1064.70435	4.34307	2410.54297	872.05054	65.97852	2360.83057	872.26892	66.18040	2419.58154	797.57019	87.75571	2366.21216	794.26843	88.66566	2380.11182	733.55902	98.92292	2369.95068	711.03076	25.67597	2553.33374	528.80243	148.00352	2496.40454	514.49542	160.31271	2559.72949	440.49777	171.04852	2522.81372	430.79678	160.42523	2365.19946	1056.88269	-388.61462	2368.28442	884.56903	-458.78702	2323.99927	873.79602	-442.32535	2386.98901	807.48627	-476.91101	2337.42090	792.71680	-458.59311	2379.81738	722.84058	-489.39560	2356.74756	700.78400	-419.90027	2547.42627	517.84796	-509.69196	2495.04590	487.81631	-532.84705	2560.49829	425.63525	-531.79346	2520.65234	421.92993	-530.84735	2440.04517	299.37320	131.42554	2427.90991	297.66544	-497.26953	
